<mxfile host="www.draw.io" modified="2019-11-26T03:57:31.429Z" agent="Mozilla/5.0 (Macintosh; Intel Mac OS X 10_14_6) AppleWebKit/537.36 (KHTML, like Gecko) Chrome/78.0.3904.108 Safari/537.36" etag="FZBBjP9JdbadfaWwFJv7" version="12.3.0" type="github" pages="1">
  <diagram id="oITIREG94htpgYvI8J3Q" name="第 1 页">
    <mxGraphModel dx="1043" dy="615" grid="1" gridSize="10" guides="1" tooltips="1" connect="1" arrows="1" fold="1" page="1" pageScale="1" pageWidth="1654" pageHeight="2336" math="0" shadow="0">
      <root>
        <mxCell id="0"/>
        <mxCell id="1" parent="0"/>
        <mxCell id="jNTAYMFoEsOWCJuY5D6m-6" style="edgeStyle=orthogonalEdgeStyle;rounded=1;orthogonalLoop=1;jettySize=auto;html=1;entryX=0;entryY=0.59;entryDx=0;entryDy=0;entryPerimeter=0;dashed=1;" edge="1" parent="1" source="jNTAYMFoEsOWCJuY5D6m-1" target="jNTAYMFoEsOWCJuY5D6m-5">
          <mxGeometry relative="1" as="geometry"/>
        </mxCell>
        <mxCell id="jNTAYMFoEsOWCJuY5D6m-7" value="维护" style="text;html=1;align=center;verticalAlign=middle;resizable=0;points=[];;labelBackgroundColor=#ffffff;" vertex="1" connectable="0" parent="jNTAYMFoEsOWCJuY5D6m-6">
          <mxGeometry x="0.1414" relative="1" as="geometry">
            <mxPoint as="offset"/>
          </mxGeometry>
        </mxCell>
        <mxCell id="jNTAYMFoEsOWCJuY5D6m-17" style="edgeStyle=orthogonalEdgeStyle;rounded=1;orthogonalLoop=1;jettySize=auto;html=1;entryX=0;entryY=0.5;entryDx=0;entryDy=0;dashed=1;" edge="1" parent="1" source="jNTAYMFoEsOWCJuY5D6m-1" target="jNTAYMFoEsOWCJuY5D6m-16">
          <mxGeometry relative="1" as="geometry"/>
        </mxCell>
        <mxCell id="jNTAYMFoEsOWCJuY5D6m-21" style="edgeStyle=orthogonalEdgeStyle;rounded=1;orthogonalLoop=1;jettySize=auto;html=1;entryX=0;entryY=0.5;entryDx=0;entryDy=0;dashed=1;" edge="1" parent="1" source="jNTAYMFoEsOWCJuY5D6m-1" target="jNTAYMFoEsOWCJuY5D6m-19">
          <mxGeometry relative="1" as="geometry"/>
        </mxCell>
        <mxCell id="jNTAYMFoEsOWCJuY5D6m-22" style="edgeStyle=orthogonalEdgeStyle;rounded=1;orthogonalLoop=1;jettySize=auto;html=1;entryX=0;entryY=0.5;entryDx=0;entryDy=0;dashed=1;" edge="1" parent="1" source="jNTAYMFoEsOWCJuY5D6m-1" target="jNTAYMFoEsOWCJuY5D6m-20">
          <mxGeometry relative="1" as="geometry"/>
        </mxCell>
        <mxCell id="jNTAYMFoEsOWCJuY5D6m-24" style="edgeStyle=orthogonalEdgeStyle;rounded=1;orthogonalLoop=1;jettySize=auto;html=1;entryX=0;entryY=0.5;entryDx=0;entryDy=0;dashed=1;" edge="1" parent="1" source="jNTAYMFoEsOWCJuY5D6m-1" target="jNTAYMFoEsOWCJuY5D6m-23">
          <mxGeometry relative="1" as="geometry"/>
        </mxCell>
        <mxCell id="jNTAYMFoEsOWCJuY5D6m-1" value="候选人" style="shape=umlActor;verticalLabelPosition=bottom;labelBackgroundColor=#ffffff;verticalAlign=top;html=1;" vertex="1" parent="1">
          <mxGeometry x="50" y="280" width="30" height="60" as="geometry"/>
        </mxCell>
        <mxCell id="jNTAYMFoEsOWCJuY5D6m-9" style="edgeStyle=orthogonalEdgeStyle;rounded=1;orthogonalLoop=1;jettySize=auto;html=1;dashed=1;" edge="1" parent="1" source="jNTAYMFoEsOWCJuY5D6m-2" target="jNTAYMFoEsOWCJuY5D6m-8">
          <mxGeometry relative="1" as="geometry"/>
        </mxCell>
        <mxCell id="jNTAYMFoEsOWCJuY5D6m-2" value="部门1" style="shape=umlActor;verticalLabelPosition=bottom;labelBackgroundColor=#ffffff;verticalAlign=top;html=1;" vertex="1" parent="1">
          <mxGeometry x="630" y="110" width="30" height="60" as="geometry"/>
        </mxCell>
        <mxCell id="jNTAYMFoEsOWCJuY5D6m-11" style="edgeStyle=orthogonalEdgeStyle;rounded=1;orthogonalLoop=1;jettySize=auto;html=1;entryX=0.875;entryY=0.5;entryDx=0;entryDy=0;entryPerimeter=0;dashed=1;" edge="1" parent="1" source="jNTAYMFoEsOWCJuY5D6m-3" target="jNTAYMFoEsOWCJuY5D6m-10">
          <mxGeometry relative="1" as="geometry"/>
        </mxCell>
        <mxCell id="jNTAYMFoEsOWCJuY5D6m-3" value="部门2" style="shape=umlActor;verticalLabelPosition=bottom;labelBackgroundColor=#ffffff;verticalAlign=top;html=1;" vertex="1" parent="1">
          <mxGeometry x="630" y="320" width="30" height="60" as="geometry"/>
        </mxCell>
        <mxCell id="jNTAYMFoEsOWCJuY5D6m-4" value="职位数据" style="shape=document;whiteSpace=wrap;html=1;boundedLbl=1;fillColor=#CDA2BE;" vertex="1" parent="1">
          <mxGeometry x="410" y="200" width="120" height="80" as="geometry"/>
        </mxCell>
        <mxCell id="jNTAYMFoEsOWCJuY5D6m-5" value="简历" style="shape=card;whiteSpace=wrap;html=1;fillColor=#FFE6CC;" vertex="1" parent="1">
          <mxGeometry x="140" y="60" width="80" height="100" as="geometry"/>
        </mxCell>
        <mxCell id="jNTAYMFoEsOWCJuY5D6m-12" style="edgeStyle=orthogonalEdgeStyle;rounded=1;orthogonalLoop=1;jettySize=auto;html=1;dashed=1;" edge="1" parent="1" source="jNTAYMFoEsOWCJuY5D6m-8" target="jNTAYMFoEsOWCJuY5D6m-4">
          <mxGeometry relative="1" as="geometry"/>
        </mxCell>
        <mxCell id="jNTAYMFoEsOWCJuY5D6m-8" value="小程序1" style="ellipse;shape=cloud;whiteSpace=wrap;html=1;" vertex="1" parent="1">
          <mxGeometry x="450" y="40" width="120" height="80" as="geometry"/>
        </mxCell>
        <mxCell id="jNTAYMFoEsOWCJuY5D6m-13" style="edgeStyle=orthogonalEdgeStyle;rounded=1;orthogonalLoop=1;jettySize=auto;html=1;dashed=1;" edge="1" parent="1" source="jNTAYMFoEsOWCJuY5D6m-10" target="jNTAYMFoEsOWCJuY5D6m-4">
          <mxGeometry relative="1" as="geometry"/>
        </mxCell>
        <mxCell id="jNTAYMFoEsOWCJuY5D6m-10" value="小程序2" style="ellipse;shape=cloud;whiteSpace=wrap;html=1;" vertex="1" parent="1">
          <mxGeometry x="440" y="380" width="120" height="80" as="geometry"/>
        </mxCell>
        <mxCell id="jNTAYMFoEsOWCJuY5D6m-14" value="部门之间数据隔离" style="shape=callout;whiteSpace=wrap;html=1;perimeter=calloutPerimeter;position2=0.62;" vertex="1" parent="1">
          <mxGeometry x="340" y="120" width="120" height="80" as="geometry"/>
        </mxCell>
        <mxCell id="jNTAYMFoEsOWCJuY5D6m-16" value="打开小程序" style="ellipse;whiteSpace=wrap;html=1;fillColor=#FFE6CC;" vertex="1" parent="1">
          <mxGeometry x="150" y="240" width="110" height="40" as="geometry"/>
        </mxCell>
        <mxCell id="jNTAYMFoEsOWCJuY5D6m-18" value="&lt;br&gt;1. 每个部门生产一个小程序&lt;br&gt;2. 候选人打开不同小程序时简历可以共用,不用在每个小程序中维护" style="text;html=1;strokeColor=none;fillColor=none;spacing=5;spacingTop=-20;whiteSpace=wrap;overflow=hidden;rounded=0;" vertex="1" parent="1">
          <mxGeometry x="370" y="510" width="190" height="120" as="geometry"/>
        </mxCell>
        <mxCell id="jNTAYMFoEsOWCJuY5D6m-19" value="投递简历" style="ellipse;whiteSpace=wrap;html=1;fillColor=#FFE6CC;" vertex="1" parent="1">
          <mxGeometry x="150" y="290" width="110" height="40" as="geometry"/>
        </mxCell>
        <mxCell id="jNTAYMFoEsOWCJuY5D6m-20" value="推荐简历" style="ellipse;whiteSpace=wrap;html=1;fillColor=#FFE6CC;" vertex="1" parent="1">
          <mxGeometry x="150" y="350" width="110" height="40" as="geometry"/>
        </mxCell>
        <mxCell id="jNTAYMFoEsOWCJuY5D6m-25" style="edgeStyle=orthogonalEdgeStyle;rounded=1;orthogonalLoop=1;jettySize=auto;html=1;dashed=1;entryX=0;entryY=0.5;entryDx=0;entryDy=0;" edge="1" parent="1" source="jNTAYMFoEsOWCJuY5D6m-23" target="jNTAYMFoEsOWCJuY5D6m-26">
          <mxGeometry relative="1" as="geometry">
            <mxPoint x="310" y="420" as="targetPoint"/>
          </mxGeometry>
        </mxCell>
        <mxCell id="jNTAYMFoEsOWCJuY5D6m-23" value="查看职位" style="ellipse;whiteSpace=wrap;html=1;fillColor=#FFE6CC;" vertex="1" parent="1">
          <mxGeometry x="150" y="410" width="110" height="40" as="geometry"/>
        </mxCell>
        <mxCell id="jNTAYMFoEsOWCJuY5D6m-26" value="根据打开的小程序,显示不同部门的数据" style="shape=process;whiteSpace=wrap;html=1;backgroundOutline=1;fillColor=#FFE6CC;" vertex="1" parent="1">
          <mxGeometry x="300" y="390" width="120" height="60" as="geometry"/>
        </mxCell>
      </root>
    </mxGraphModel>
  </diagram>
</mxfile>
